<svg xmlns="http://www.w3.org/2000/svg" xmlns:xlink="http://www.w3.org/1999/xlink" width="24" height="24" viewBox="0 0 24 24" fill="none">
    <path     fill="#A5D63F"  d="M0 24L24 24L24 0L0 0L0 24Z">
    </path>
    <path d="M8.66667 5.73684L8.66667 10.8947L12 9.05263L15.3333 10.8947L15.3333 5.73684L17.3333 5.73684C17.7015 5.73684 18 6.06674 18 6.47368L18 18.2632C18 18.6701 17.7015 19 17.3333 19L6.66667 19C6.29847 19 6 18.6701 6 18.2632L6 6.47368C6 6.06674 6.29847 5.73684 6.66667 5.73684L8.66667 5.73684ZM12 8.68421L9.00001 5L15 5L12 8.68421ZM12.6667 11.0687L12 10.7003L11.3333 11.0687L11.3333 17.5263L12.6667 17.5263L12.6667 11.0687ZM14 13.1053L14 14.5789L16.6666 14.5789L16.6666 13.1053L14 13.1053Z"   fill="#FFFFFF" >
    </path>
</svg>
