<svg xmlns="http://www.w3.org/2000/svg" xmlns:xlink="http://www.w3.org/1999/xlink" width="24" height="24" viewBox="0 0 24 24" fill="none">
	<path     fill="#AC33C1"  d="M0 24L24 24L24 0L0 0L0 24Z">
	</path>
	<path d="M12 19C8.134 19 5 15.866 5 12C5 8.134 8.134 5 12 5C15.866 5 19 8.134 19 12C19 15.866 15.866 19 12 19ZM8.5 12C8.5 13.933 10.067 15.5 12 15.5C13.933 15.5 15.5 13.933 15.5 12L14.1 12C14.1 13.1598 13.1598 14.1 12 14.1C10.8402 14.1 9.9 13.1598 9.9 12L8.5 12Z"   fill="#FFFFFF" >
	</path>
</svg>
