<svg xmlns="http://www.w3.org/2000/svg" xmlns:xlink="http://www.w3.org/1999/xlink" width="24" height="24" viewBox="0 0 24 24" fill="none">
	<path     fill="#00ADAB"  d="M0 24L24 24L24 0L0 0L0 24Z">
	</path>
	<path d="M13.0043 7.79645L16.6234 5.14537C16.9151 4.9317 17.3301 4.95604 17.5914 5.20213L19.7853 7.26843C20.0467 7.51453 20.0725 7.90536 19.8456 8.18008L17.0315 11.5877C17.2463 12.4077 17.2505 13.289 17.002 14.1625C16.3439 16.4756 14.1222 18 11.6949 18C9.12916 18 5.83184 16.9635 4 15.9284C6.91613 13.8581 6.23281 12.6088 6.56458 11.4427C7.34013 8.71675 10.1127 7.12453 13.0043 7.79645ZM15.5051 9.09288C15.5533 9.13666 15.6006 9.18123 15.647 9.22656L16.4783 10.0095L18.2917 7.8136L17.0126 6.60885L14.681 8.31677L15.5051 9.09288Z"   fill="#FFFFFF" >
	</path>
</svg>
