<svg xmlns="http://www.w3.org/2000/svg" xmlns:xlink="http://www.w3.org/1999/xlink" width="24" height="24" viewBox="0 0 24 24" fill="none">
    <path     fill="#E33C64"  d="M0 24L24 24L24 0L0 0L0 24Z">
    </path>
    <path d="M12.283 7.03373L16.8081 8.12926C17.0678 8.19214 17.25 8.41808 17.25 8.6773L17.25 9.22455L17.8333 9.22481C18.475 9.22481 19 9.73322 19 10.3546L19 12.0493C19 12.9852 18.2165 13.744 17.25 13.744L17.0044 13.7442C16.6925 14.5067 16.0994 15.1484 15.3153 15.5281L12.5217 16.8808C12.1933 17.0398 11.8067 17.0398 11.4783 16.8808L8.68475 15.5281C7.90064 15.1484 7.30751 14.5067 6.99566 13.7442L6.75 13.744C5.7835 13.744 5 12.9852 5 12.0493L5 10.3546C5 9.73064 5.52233 9.22481 6.16667 9.22481L6.75 9.22455L6.75 8.6773C6.75 8.41808 6.93218 8.19214 7.19185 8.12926L11.717 7.03373C11.9028 6.98876 12.0972 6.98876 12.283 7.03373ZM12 8.12979L7.91667 9.11836L7.91667 12.4966C7.91667 13.3525 8.41601 14.1349 9.2065 14.5176L12 15.8702L14.7935 14.5176C15.584 14.1349 16.0833 13.3525 16.0833 12.4966L16.0833 9.11836L12 8.12979ZM6.75 10.3546L6.16667 10.3546L6.16667 12.0493C6.16667 12.3613 6.42784 12.6142 6.75 12.6142L6.75 10.3546ZM17.8333 10.3546L17.25 10.3546L17.25 12.6142C17.5722 12.6142 17.8333 12.3613 17.8333 12.0493L17.8333 10.3546Z"   fill="#FFFFFF" >
    </path>
</svg>
