<svg xmlns="http://www.w3.org/2000/svg" xmlns:xlink="http://www.w3.org/1999/xlink" width="24" height="24" viewBox="0 0 24 24" fill="none">	<path     fill="#7948EA"  d="M0 24L24 24L24 0L0 0L0 24Z">	</path>	<path d="M16.8943 7.10578C18.3686 8.58014 18.3686 10.9706 16.8943 12.4449L15.559 13.7792L12.445 16.8942C10.9705 18.3686 8.58014 18.3686 7.10577 16.8942C5.63141 15.4198 5.63141 13.0295 7.10577 11.5551L11.5551 7.10578C13.0294 5.63141 15.4199 5.63141 16.8943 7.10578ZM13.7797 13.7797L10.2203 10.2203L7.99563 12.4449C7.01272 13.4278 7.01272 15.0215 7.99563 16.0044C8.97854 16.9873 10.5722 16.9873 11.5551 16.0044L13.7797 13.7797Z"   fill="#FFFFFF" >	</path></svg>