<svg xmlns="http://www.w3.org/2000/svg" xmlns:xlink="http://www.w3.org/1999/xlink" width="24" height="24" viewBox="0 0 24 24" fill="none">    <path     fill="#00BAAD"  d="M0 24L24 24L24 0L0 0L0 24Z">    </path>    <path d="M12 15.8182C9.89128 15.8182 8.18182 14.1087 8.18182 12C8.18182 9.89128 9.89128 8.18182 12 8.18182C14.1087 8.18182 15.8182 9.89128 15.8182 12C15.8182 14.1087 14.1087 15.8182 12 15.8182ZM11.3636 5L12.6364 5L12.6364 6.90909L11.3636 6.90909L11.3636 5ZM11.3636 17.0909L12.6364 17.0909L12.6364 19L11.3636 19L11.3636 17.0909ZM6.60028 7.50023L7.50023 6.60028L8.85016 7.95021L7.95021 8.85016L6.60028 7.50023ZM15.1498 16.0498L16.0498 15.1498L17.3997 16.4998L16.4998 17.3997L15.1498 16.0498ZM16.4998 6.60028L17.3997 7.50023L16.0498 8.85016L15.1498 7.95021L16.4998 6.60028ZM7.95021 15.1498L8.85016 16.0498L7.50023 17.3997L6.60028 16.4998L7.95021 15.1498ZM19 11.3636L19 12.6364L17.0909 12.6364L17.0909 11.3636L19 11.3636ZM6.90909 11.3636L6.90909 12.6364L5 12.6364L5 11.3636L6.90909 11.3636Z"   fill="#FFFFFF" >    </path></svg>