<svg xmlns="http://www.w3.org/2000/svg" xmlns:xlink="http://www.w3.org/1999/xlink" width="24" height="24" viewBox="0 0 24 24" fill="none">
    <path     fill="#43CF7C"  d="M0 24L24 24L24 0L0 0L0 24Z">
    </path>
    <path d="M8.18182 10.3C7.12746 10.3 6.27273 11.173 6.27273 12.25C6.27273 13.327 7.12746 14.2 8.18182 14.2C9.23618 14.2 10.0909 13.327 10.0909 12.25C10.0909 11.8359 9.96817 11.4536 9.75364 11.1385C9.40774 10.6304 8.83103 10.3 8.18182 10.3ZM5 12.25C5 10.4551 6.42455 9 8.18182 9C8.95431 9 9.6611 9.28052 10.2118 9.7475C10.671 9.28504 11.3032 9 12 9C12.6968 9 13.3289 9.28504 13.7882 9.7475C14.3389 9.28052 15.0457 9 15.8182 9C17.5754 9 19 10.4551 19 12.25C19 14.0449 17.5754 15.5 15.8182 15.5C14.0609 15.5 12.6364 14.0449 12.6364 12.25C12.6364 11.7193 12.7585 11.2178 12.98 10.7745C12.7461 10.4845 12.3951 10.3 12 10.3C11.6049 10.3 11.2539 10.4845 11.02 10.7745C11.2415 11.2178 11.3636 11.7193 11.3636 12.25C11.3636 14.0449 9.93909 15.5 8.18182 15.5C6.42455 15.5 5 14.0449 5 12.25ZM15.8182 10.3C15.169 10.3 14.5923 10.6304 14.2464 11.1385C14.0318 11.4536 13.9091 11.8359 13.9091 12.25C13.9091 13.327 14.7638 14.2 15.8182 14.2C16.8726 14.2 17.7273 13.327 17.7273 12.25C17.7273 11.173 16.8726 10.3 15.8182 10.3Z"   fill="#FFFFFF" >
    </path>
</svg>
