<svg xmlns="http://www.w3.org/2000/svg" xmlns:xlink="http://www.w3.org/1999/xlink" width="24" height="24" viewBox="0 0 24 24" fill="none">
    <path     fill="#2200ff"  d="M0 24L24 24L24 0L0 0L0 24Z">
    </path>
    <path d="M15.4648 11.9698C16.7143 10.8989 17.1479 9.39335 16.7657 8.02078L18.5121 7.37922C18.6898 7.31395 18.8956 7.38449 18.9717 7.53679C18.9903 7.57413 19 7.61434 19 7.65496L19 16.2L14.1 18L9.9 16.2L5.48787 17.8208C5.3102 17.8861 5.10445 17.8155 5.0283 17.6632C5.00962 17.6259 5 17.5856 5 17.545L5 9L7.19024 8.19542C6.89016 9.51979 7.33847 10.9441 8.53518 11.9698L12 14.9397L15.4648 11.9698ZM14.4748 11.1213L12 13.2427L9.52513 11.1213C8.15829 9.94975 8.15829 8.05025 9.52513 6.87868C10.892 5.70711 13.108 5.70711 14.4748 6.87868C15.8417 8.05025 15.8417 9.94975 14.4748 11.1213Z"   fill="#FFFFFF" >
    </path>
</svg>
