<svg xmlns="http://www.w3.org/2000/svg" xmlns:xlink="http://www.w3.org/1999/xlink" width="24" height="24" viewBox="0 0 24 24" fill="none">    <path     fill="#FFC300"  d="M0 24L24 24L24 0L0 0L0 24Z">    </path>    <path d="M8.93193 5L15.3413 5C15.4994 6.33933 16.4385 7.33333 17.5457 7.33333C17.7571 7.33333 17.9673 7.29655 18.1703 7.2241C18.053 8.61189 17.0963 9.66667 15.9548 9.66667L8.31841 9.66667C7.17692 9.66667 6.2202 8.61189 6.10293 7.22411C6.30583 7.29655 6.51612 7.33333 6.72751 7.33333C7.83468 7.33333 8.77376 6.33933 8.93193 5ZM19.123 11.3089C18.8453 11.5015 18.5242 11.6115 18.1821 11.6115C17.4754 11.6115 16.8585 11.1423 16.5283 10.4448L7.74483 10.4448C7.41474 11.1423 6.79777 11.6115 6.09114 11.6115C5.74901 11.6115 5.42791 11.5015 5.1502 11.3089C5.14121 11.4082 5.1366 11.5092 5.1366 11.6115C5.1366 12.6974 5.65684 13.6348 6.40932 14.0718L6.40932 19L10.2275 19L10.2275 17.4444C10.2275 16.1557 11.0823 15.1111 12.1366 15.1111C13.191 15.1111 14.0457 16.1557 14.0457 17.4444L14.0457 19L17.8639 19L17.8639 14.0718C18.6164 13.6348 19.1366 12.6974 19.1366 11.6115C19.1366 11.5092 19.132 11.4082 19.123 11.3089Z"   fill="#FFFFFF" >    </path></svg>