<svg xmlns="http://www.w3.org/2000/svg" xmlns:xlink="http://www.w3.org/1999/xlink" width="24" height="24" viewBox="0 0 24 24" fill="none">
    <path     fill="#FF6969"  d="M0 24L24 24L24 0L0 0L0 24Z">
    </path>
    <path d="M12.7 4.71549C16.2373 5.05757 19 7.96453 19 11.5L19 12.1818L12.7 12.1818L12.7 16.2727C12.7 17.0259 13.3269 17.6364 14.1 17.6364C14.8732 17.6364 15.5 17.0259 15.5 16.2727L15.5 15.5909L16.9 15.5909L16.9 16.2727C16.9 17.7789 15.6464 19 14.1 19C12.5536 19 11.3 17.7789 11.3 16.2727L11.3 12.1818L5 12.1818L5 11.5C5 7.96453 7.76268 5.05757 11.3 4.71549L11.3 4.68182C11.3 4.30526 11.6134 4 12 4C12.3866 4 12.7 4.30526 12.7 4.68182L12.7 4.71549Z"   fill="#FFFFFF" >
    </path>
</svg>
