<svg xmlns="http://www.w3.org/2000/svg" xmlns:xlink="http://www.w3.org/1999/xlink" viewBox="0 0 337 256" width="337" height="256" preserveAspectRatio="xMidYMid meet" style="width: 100%; height: 100%; transform: translate3d(0px, 0px, 0px); content-visibility: visible;"><defs><clipPath id="__lottie_element_2"><rect width="337" height="256" x="0" y="0"></rect></clipPath><clipPath id="__lottie_element_4"><path d="M0,0 L337,0 L337,256 L0,256z"></path></clipPath><clipPath id="__lottie_element_8"><path d="M0,0 L337,0 L337,256 L0,256z"></path></clipPath><clipPath id="__lottie_element_12"><path d="M0,0 L337,0 L337,256 L0,256z"></path></clipPath></defs><g clip-path="url(#__lottie_element_2)"><g clip-path="url(#__lottie_element_4)" transform="matrix(1,0,0,1,25.000003814697266,46.51802062988281)" opacity="1" style="display: block;"><g transform="matrix(1,0,0,1,1,1)" opacity="1" style="display: block;"><path fill="rgb(15,13,16)" fill-opacity="1" d=" M94.81999206542969,95.83999633789062 C94.81999206542969,95.83999633789062 106.24000549316406,89.79000854492188 106.24000549316406,89.79000854492188 C106.24000549316406,89.79000854492188 106.24000549316406,68.1300048828125 106.24000549316406,68.1300048828125 C106.24000549316406,68.1300048828125 94.81999206542969,66.3499984741211 94.81999206542969,66.3499984741211 C94.81999206542969,66.3499984741211 94.81999206542969,4.080002784729004 94.81999206542969,4.080002784729004 C94.81999206542969,4.080002784729004 68.56000518798828,0 68.56000518798828,0 C68.56000518798828,0 42.719993591308594,13.659995079040527 42.719993591308594,13.659995079040527 C42.719993591308594,13.659995079040527 0,70.6300048828125 0,70.6300048828125 C0,70.6300048828125 0,90.94999694824219 0,90.94999694824219 C0,90.94999694824219 45.309993743896484,98 45.309993743896484,98 C45.309993743896484,98 45.309993743896484,117.87000274658203 45.309993743896484,117.87000274658203 C45.309993743896484,117.87000274658203 68.9800033569336,121.55000305175781 68.9800033569336,121.55000305175781 C68.9800033569336,121.55000305175781 94.83000183105469,107.89999389648438 94.83000183105469,107.89999389648438 C94.83000183105469,107.89999389648438 94.83000183105469,95.83999633789062 94.83000183105469,95.83999633789062 C94.83000183105469,95.83999633789062 94.81999206542969,95.83999633789062 94.81999206542969,95.83999633789062z"></path></g><g transform="matrix(1,0,0,1,25.869998931884766,62.45000457763672)" opacity="1" style="display: block;"><path stroke-linecap="round" stroke-linejoin="round" fill-opacity="0" stroke="rgb(49,47,54)" stroke-opacity="1" stroke-width="1" d=" M22.180004119873047,0 C22.180004119873047,0 0,11.709999084472656 0,11.709999084472656 C0,11.709999084472656 22.180004119873047,0 22.180004119873047,0z"></path></g><g transform="matrix(1,0,0,1,25.869998931884766,74.14999389648438)" opacity="1" style="display: block;"><path stroke-linecap="round" stroke-linejoin="round" fill-opacity="0" stroke="rgb(49,47,54)" stroke-opacity="1" stroke-width="1" d=" M22.180004119873047,3.4500014781951904 C22.180004119873047,3.4500014781951904 0,0 0,0 C0,0 22.180004119873047,3.4500014781951904 22.180004119873047,3.4500014781951904z"></path></g><g transform="matrix(1,0,0,1,69.95999908447266,102.68000030517578)" opacity="1" style="display: block;"><path stroke-linecap="round" stroke-linejoin="round" fill-opacity="0" stroke="rgb(49,47,54)" stroke-opacity="1" stroke-width="1" d=" M0,0 C0,0 0,19.870004653930664 0,19.870004653930664 C0,19.870004653930664 0,0 0,0z"></path></g><g transform="matrix(1,0,0,1,81.38999938964844,82.79999542236328)" opacity="1" style="display: block;"><path stroke-linecap="round" stroke-linejoin="round" fill-opacity="0" stroke="rgb(49,47,54)" stroke-opacity="1" stroke-width="1" d=" M0,0 C0,0 0,21.65999984741211 0,21.65999984741211 C0,21.65999984741211 0,0 0,0z"></path></g><g transform="matrix(1,0,0,1,81.4000015258789,69.1500015258789)" opacity="1" style="display: block;"><path stroke-linecap="round" stroke-linejoin="round" fill-opacity="0" stroke="rgb(49,47,54)" stroke-opacity="1" stroke-width="1" d=" M0,13.659995079040527 C0,13.659995079040527 25.849998474121094,0 25.849998474121094,0 C25.849998474121094,0 0,13.659995079040527 0,13.659995079040527z"></path></g><g transform="matrix(1,0,0,1,69.97000122070312,81.02000427246094)" opacity="1" style="display: block;"><path stroke-linecap="round" stroke-linejoin="round" fill-opacity="0" stroke="rgb(49,47,54)" stroke-opacity="1" stroke-width="1" d=" M0,0 C0,0 11.429996490478516,1.7899943590164185 11.429996490478516,1.7899943590164185 C11.429996490478516,1.7899943590164185 0,0 0,0z"></path></g><g transform="matrix(1,0,0,1,69.97000122070312,67.36000061035156)" opacity="1" style="display: block;"><path stroke-linecap="round" stroke-linejoin="round" fill-opacity="0" stroke="rgb(49,47,54)" stroke-opacity="1" stroke-width="1" d=" M0,13.659995079040527 C0,13.659995079040527 25.849998474121094,0 25.849998474121094,0 C25.849998474121094,0 0,13.659995079040527 0,13.659995079040527z"></path></g><g transform="matrix(1,0,0,1,69.95999908447266,18.719999313354492)" opacity="1" style="display: block;"><path stroke-linecap="round" stroke-linejoin="round" fill-opacity="0" stroke="rgb(49,47,54)" stroke-opacity="1" stroke-width="1" d=" M0,0 C0,0 0,62.29000473022461 0,62.29000473022461 C0,62.29000473022461 0,0 0,0z"></path></g><g transform="matrix(1,0,0,1,25.869998931884766,44.2400016784668)" opacity="1" style="display: block;"><path stroke-linecap="round" stroke-linejoin="round" fill-opacity="0" stroke="rgb(49,47,54)" stroke-opacity="1" stroke-width="1" d=" M22.180004119873047,0 C22.180004119873047,0 0,29.919998168945312 0,29.919998168945312 C0,29.919998168945312 22.180004119873047,0 22.180004119873047,0z"></path></g><g transform="matrix(1,0,0,1,69.97000122070312,5.069999694824219)" opacity="1" style="display: block;"><path stroke-linecap="round" stroke-linejoin="round" fill-opacity="0" stroke="rgb(49,47,54)" stroke-opacity="1" stroke-width="1" d=" M0,13.659995079040527 C0,13.659995079040527 25.849998474121094,0 25.849998474121094,0 C25.849998474121094,0 0,13.659995079040527 0,13.659995079040527z"></path></g><g transform="matrix(1,0,0,1,43.70000076293945,14.640000343322754)" opacity="1" style="display: block;"><path stroke-linecap="round" stroke-linejoin="round" fill-opacity="0" stroke="rgb(49,47,54)" stroke-opacity="1" stroke-width="1" d=" M0,0 C0,0 26.269994735717773,4.080002784729004 26.269994735717773,4.080002784729004 C26.269994735717773,4.080002784729004 0,0 0,0z"></path></g><g transform="matrix(1,0,0,1,69.47000122070312,96.35000610351562)" opacity="1" style="display: block;"><path fill-rule="evenodd" fill="rgb(49,47,54)" fill-opacity="1" d=" M26.790002822875977,0.26999539136886597 C26.920000076293945,0.5100011825561523 26.820009231567383,0.8100046515464783 26.58000373840332,0.9400031566619873 C26.58000373840332,0.9400031566619873 12.160000801086426,8.5599946975708 12.160000801086426,8.5599946975708 C12.06000804901123,8.609994888305664 11.95999526977539,8.629992485046387 11.850000381469727,8.609996795654297 C11.850000381469727,8.609996795654297 0.4200039803981781,6.820002555847168 0.4200039803981781,6.820002555847168 C0.15000005066394806,6.779999256134033 -0.030009105801582336,6.520004749298096 0.009994551539421082,6.250000953674316 C0.0499982088804245,5.979997158050537 0.30999231338500977,5.79000186920166 0.5799962282180786,5.830005645751953 C0.5799962282180786,5.830005645751953 11.840001106262207,7.590005874633789 11.840001106262207,7.590005874633789 C11.840001106262207,7.590005874633789 26.1199951171875,0.05999714136123657 26.1199951171875,0.05999714136123657 C26.360000610351562,-0.07000136375427246 26.660003662109375,0.029989561066031456 26.790002822875977,0.26999539136886597 C26.790002822875977,0.26999539136886597 26.790002822875977,0.26999539136886597 26.790002822875977,0.26999539136886597z"></path></g><g transform="matrix(1,0,0,1,48.060001373291016,44.23999786376953)" opacity="1" style="display: block;"><path stroke-linecap="round" stroke-linejoin="round" fill-opacity="0" stroke="rgb(49,47,54)" stroke-opacity="1" stroke-width="1" d=" M0,33.369998931884766 C0,33.369998931884766 0,0 0,0 C0,0 0,33.369998931884766 0,33.369998931884766z"></path></g><g transform="matrix(1,0,0,1,0,0)" opacity="1" style="display: block;"><path fill-rule="evenodd" fill="rgb(100,96,107)" fill-opacity="1" d=" M94.83000183105469,97 C94.76000213623047,96.58999633789062 94.95999908447266,96.15999603271484 95.3499984741211,95.95000457763672 C95.3499984741211,95.95000457763672 106.24000549316406,90.19000244140625 106.24000549316406,90.19000244140625 C106.24000549316406,90.19000244140625 106.24000549316406,69.98999786376953 106.24000549316406,69.98999786376953 C106.24000549316406,69.98999786376953 95.66000366210938,68.33999633789062 95.66000366210938,68.33999633789062 C95.17000579833984,68.26000213623047 94.81999206542969,67.84000396728516 94.81999206542969,67.3499984741211 C94.81999206542969,67.3499984741211 94.81999206542969,5.939998149871826 94.81999206542969,5.939998149871826 C94.81999206542969,5.939998149871826 69.73999786376953,2.039998769760132 69.73999786376953,2.039998769760132 C69.73999786376953,2.039998769760132 44.380001068115234,15.439993858337402 44.380001068115234,15.439993858337402 C44.380001068115234,15.439993858337402 2,71.9699935913086 2,71.9699935913086 C2,71.9699935913086 2,91.09000396728516 2,91.09000396728516 C2,91.09000396728516 46.459999084472656,98.01000213623047 46.459999084472656,98.01000213623047 C46.94999694824219,98.08999633789062 47.309993743896484,98.50999450683594 47.309993743896484,99 C47.309993743896484,99 47.309993743896484,118.0199966430664 47.309993743896484,118.0199966430664 C47.309993743896484,118.0199966430664 69.80999755859375,121.51000213623047 69.80999755859375,121.51000213623047 C69.80999755859375,121.51000213623047 94.83000183105469,108.29000091552734 94.83000183105469,108.29000091552734 C94.83000183105469,108.29000091552734 94.83000183105469,97 94.83000183105469,97 C94.83000183105469,97 94.83000183105469,97 94.83000183105469,97z M69.0999984741211,0.11999419331550598 C69.28999328613281,0.019993416965007782 69.50999450683594,-0.020001664757728577 69.7199935913086,0.010002600029110909 C69.7199935913086,0.010002600029110909 95.97000122070312,4.090005397796631 95.97000122070312,4.090005397796631 C96.45999908447266,4.169999599456787 96.81999206542969,4.589998722076416 96.81999206542969,5.080002784729004 C96.81999206542969,5.080002784729004 96.81999206542969,66.49000549316406 96.81999206542969,66.49000549316406 C96.81999206542969,66.49000549316406 107.39999389648438,68.14999389648438 107.39999389648438,68.14999389648438 C107.8899917602539,68.22998809814453 108.24000549316406,68.63999938964844 108.24000549316406,69.1300048828125 C108.24000549316406,69.1300048828125 108.24000549316406,90.79000854492188 108.24000549316406,90.79000854492188 C108.24000549316406,91.16000366210938 108.04000091552734,91.50999450683594 107.70999908447266,91.68000030517578 C107.70999908447266,91.68000030517578 96.83000183105469,97.43000030517578 96.83000183105469,97.43000030517578 C96.83000183105469,97.43000030517578 96.83000183105469,108.89999389648438 96.83000183105469,108.89999389648438 C96.83000183105469,109.2699966430664 96.62998962402344,109.60999298095703 96.29999542236328,109.77999877929688 C96.29999542236328,109.77999877929688 70.44999694824219,123.43999481201172 70.44999694824219,123.43999481201172 C70.25999450683594,123.53999328613281 70.04000091552734,123.57000732421875 69.82999420166016,123.54000091552734 C69.82999420166016,123.54000091552734 46.15000534057617,119.86000061035156 46.15000534057617,119.86000061035156 C45.66000747680664,119.7800064086914 45.309993743896484,119.3600082397461 45.309993743896484,118.87000274658203 C45.309993743896484,118.87000274658203 45.309993743896484,99.85999298095703 45.309993743896484,99.85999298095703 C45.309993743896484,99.85999298095703 0.8499947786331177,92.93999481201172 0.8499947786331177,92.93999481201172 C0.359998881816864,92.86000061035156 0,92.44000244140625 0,91.94999694824219 C0,91.94999694824219 0,71.6300048828125 0,71.6300048828125 C0,71.4100112915039 0.07000018656253815,71.20000457763672 0.1999998390674591,71.0300064086914 C0.1999998390674591,71.0300064086914 42.91999435424805,14.059995651245117 42.91999435424805,14.059995651245117 C43.00999069213867,13.939997673034668 43.1199951171875,13.840002059936523 43.249996185302734,13.770003318786621 C43.249996185302734,13.770003318786621 69.0999984741211,0.11999419331550598 69.0999984741211,0.11999419331550598 C69.0999984741211,0.11999419331550598 69.0999984741211,0.11999419331550598 69.0999984741211,0.11999419331550598z"></path></g></g><g clip-path="url(#__lottie_element_8)" transform="matrix(1,0,0,1,116.25999450683594,72.47653198242188)" opacity="1" style="display: block;"><g transform="matrix(1,0,0,1,1.0000190734863281,1)" opacity="1" style="display: block;"><path fill="rgb(15,13,16)" fill-opacity="1" d=" M102.72999572753906,65.22000122070312 C103.45000457763672,44.019996643066406 100.57999420166016,17.790002822875977 80.42000579833984,6.029998779296875 C69.63999938964844,0.1899971216917038 54.1199951171875,-2.5799975395202637 42.79999542236328,3.140002965927124 C17.209989547729492,17.870004653930664 4.059994220733643,16.04999542236328 0.499996155500412,49.969993591308594 C-2.290008068084717,85.2199935913086 5.7600016593933105,121.32000732421875 48.28999710083008,120.77000427246094 C50.8900032043457,120.62001037597656 53.980003356933594,120.12999725341797 56.45000457763672,119.2699966430664 C59.08000564575195,118.3699951171875 83.87998962402344,105.15999603271484 86.78999328613281,103.52999877929688 C98.42999267578125,93.61000061035156 102.26998901367188,73.85999298095703 102.72999572753906,65.22000122070312 C102.72999572753906,65.22000122070312 102.72999572753906,65.22000122070312 102.72999572753906,65.22000122070312z M102.72999572753906,65.22000122070312 C103.45000457763672,44.019996643066406 100.57999420166016,17.790002822875977 80.42000579833984,6.029998779296875 C69.63999938964844,0.1899971216917038 54.1199951171875,-2.5799975395202637 42.79999542236328,3.140002965927124 C17.209989547729492,17.870004653930664 4.059994220733643,16.04999542236328 0.499996155500412,49.969993591308594 C-2.290008068084717,85.2199935913086 5.7600016593933105,121.32000732421875 48.28999710083008,120.77000427246094 C50.8900032043457,120.62001037597656 53.980003356933594,120.12999725341797 56.45000457763672,119.2699966430664 C59.08000564575195,118.3699951171875 83.87998962402344,105.15999603271484 86.78999328613281,103.52999877929688 C86.78999328613281,103.52999877929688 102.72999572753906,65.22000122070312 102.72999572753906,65.22000122070312z"></path></g><g transform="matrix(1,0,0,1,17.43000030517578,13.890003204345703)" opacity="1" style="display: block;"><path fill-rule="evenodd" fill="rgb(49,47,54)" fill-opacity="1" d=" M37.8800048828125,7.240002632141113 C27.139997482299805,1.430001139640808 11.86999797821045,-1.269995927810669 0.7299939393997192,4.360004901885986 C0.4799988269805908,4.480011463165283 0.17001162469387054,4.389998912811279 0.05000533536076546,4.1400041580200195 C-0.07000096142292023,3.8900089263916016 0.020011279731988907,3.590007781982422 0.270006388425827,3.470001459121704 C12.640005111694336,-2.779998779296875 26.68999671936035,0.15999865531921387 38.37000274658203,6.369999408721924 C49.910011291503906,12.920004844665527 56.519996643066406,25.639989852905273 59.01999282836914,38.28999710083008 C60.720001220703125,47.969993591308594 61.969993591308594,61.980003356933594 60.27999496459961,74.93000030517578 C58.59000015258789,87.8499984741211 53.959999084472656,99.8699951171875 43.7599983215332,105.31000518798828 C43.51999282836914,105.44000244140625 43.21000289916992,105.3499984741211 43.08000564575195,105.10999298095703 C42.95000457763672,104.86998748779297 43.049991607666016,104.55999755859375 43.28999710083008,104.43000030517578 C53.04000473022461,99.22999572753906 57.61000061035156,87.63999938964844 59.280006408691406,74.80000305175781 C60.950008392333984,61.98999786376953 59.72000503540039,48.08999252319336 58.03000259399414,38.469993591308594 C55.579994201660156,26.039995193481445 49.10000991821289,13.61000919342041 37.8800048828125,7.240002632141113 C37.8800048828125,7.240002632141113 37.8800048828125,7.240002632141113 37.8800048828125,7.240002632141113z"></path></g><g transform="matrix(1,0,0,1,51.10000228881836,46.779998779296875)" opacity="1" style="display: block;"><path stroke-linecap="round" stroke-linejoin="round" fill-opacity="0" stroke="rgb(49,47,54)" stroke-opacity="1" stroke-width="1" d=" M2.889995813369751,29.260000228881836 C2.889995813369751,29.260000228881836 2.2400035858154297,27.540000915527344 2.2400035858154297,27.540000915527344 C2.2400035858154297,27.540000915527344 1.5999971628189087,25.24999237060547 1.5999971628189087,25.24999237060547 C1.5999971628189087,25.24999237060547 1.0700058937072754,22.80000114440918 1.0700058937072754,22.80000114440918 C1.0700058937072754,22.80000114440918 0.6800066828727722,20.209999084472656 0.6800066828727722,20.209999084472656 C0.6800066828727722,20.209999084472656 0.4199948310852051,17.469999313354492 0.4199948310852051,17.469999313354492 C0.4199948310852051,17.469999313354492 0.10999642312526703,11.659994125366211 0.10999642312526703,11.659994125366211 C0.10999642312526703,11.659994125366211 0,5.469993591308594 0,5.469993591308594 C0,5.469993591308594 0.0900055393576622,0 0.0900055393576622,0 C0.0900055393576622,0 2.889995813369751,29.260000228881836 2.889995813369751,29.260000228881836z"></path></g><g transform="matrix(1,0,0,1,25.290000915527344,37.05999755859375)" opacity="1" style="display: block;"><path stroke-linecap="round" stroke-linejoin="round" fill-opacity="0" stroke="rgb(49,47,54)" stroke-opacity="1" stroke-width="1" d=" M7.220005989074707,1.0400065183639526 C-1.749993920326233,6.5300092697143555 0.2600119113922119,25.649993896484375 0.050005197525024414,35.019996643066406 C0.5100004076957703,44.20000457763672 0.8999996185302734,57.08000183105469 10.900005340576172,61.040000915527344 C14.240010261535645,62.16999816894531 18.23000717163086,62.77000427246094 21.51000213623047,61.160003662109375 C28.530006408691406,56.780006408691406 28.14000701904297,46.78000259399414 28.680004119873047,39.47999572753906 C28.48000144958496,28.109989166259766 30.6299991607666,7.70000696182251 18.850004196166992,1.5500068664550781 C15.290006637573242,0.02000575140118599 10.809999465942383,-0.7699973583221436 7.220005989074707,1.0400065183639526 C7.220005989074707,1.0400065183639526 7.220005989074707,1.0400065183639526 7.220005989074707,1.0400065183639526z"></path></g><g transform="matrix(1,0,0,1,0,0)" opacity="1" style="display: block;"><path fill-rule="evenodd" fill="rgb(100,96,107)" fill-opacity="1" d=" M44.27000045776367,5.0200042724609375 C39.000003814697266,8.050004959106445 34.25000762939453,10.390000343322754 30.030006408691406,12.46999454498291 C29.100011825561523,12.929987907409668 28.209999084472656,13.36999225616455 27.33999252319336,13.79999828338623 C22.449996948242188,16.229999542236328 18.3800048828125,18.399999618530273 15.010004997253418,21.13999366760254 C8.370002746582031,26.52999496459961 4.259998321533203,34.24999237060547 2.490004301071167,51.05999755859375 C1.1000046730041504,68.6199951171875 2.4300074577331543,86.22000122070312 9.28000545501709,99.33000183105469 C12.69999885559082,105.87000274658203 17.489988327026367,111.2800064086914 23.9899959564209,115.0300064086914 C30.489999771118164,118.7800064086914 38.7700080871582,120.90000915527344 49.250003814697266,120.77000427246094 C51.790000915527344,120.62999725341797 54.77000045776367,120.14999389648438 57.1200065612793,119.32999420166016 C57.1200065612793,119.32999420166016 57.12999725341797,119.32000732421875 57.12999725341797,119.32000732421875 C57.70000457763672,119.12001037597656 59.660003662109375,118.18000030517578 62.439998626708984,116.7699966430664 C65.17000579833984,115.37999725341797 68.60999298095703,113.59999084472656 72.04999542236328,111.79000091552734 C78.81000518798828,108.23999786376953 85.59001159667969,104.6099853515625 87.21000671386719,103.70999908447266 C92.79000854492188,98.91000366210938 96.56999206542969,91.7199935913086 99,84.56999969482422 C101.43999481201172,77.41000366210938 102.5,70.41000366210938 102.72999572753906,66.17999267578125 C103.08999633789062,55.62998962402344 102.54999542236328,43.8900032043457 99.44999694824219,33.369998931884766 C96.3499984741211,22.859996795654297 90.71000671386719,13.619996070861816 80.93000030517578,7.9000020027160645 C70.31000518798828,2.1500062942504883 55.18000030517578,-0.4799920320510864 44.27000045776367,5.0200042724609375 C44.27000045776367,5.0200042724609375 44.27000045776367,5.0200042724609375 44.27000045776367,5.0200042724609375z M57.779998779296875,121.2199935913086 C57.77999496459961,121.2199935913086 57.77999496459961,121.2199935913086 57.77999496459961,121.2199935913086 C57.77999496459961,121.2199935913086 57.45000457763672,120.2699966430664 57.45000457763672,120.2699966430664 C57.45000457763672,120.2699966430664 57.78000259399414,121.21000671386719 57.78000259399414,121.21000671386719 C57.779998779296875,121.21000671386719 57.779998779296875,121.2199935913086 57.779998779296875,121.2199935913086 C57.779998779296875,121.2199935913086 57.779998779296875,121.2199935913086 57.779998779296875,121.2199935913086z M43.34999465942383,3.250000476837158 C55.06999969482422,-2.670006513595581 70.95999908447266,0.2200063169002533 81.89999389648438,6.150001049041748 C81.90999603271484,6.159994125366211 81.91999816894531,6.160001277923584 81.92999267578125,6.169994831085205 C92.29000091552734,12.219991683959961 98.1600112915039,21.960006713867188 101.3600082397461,32.80000305175781 C104.55001068115234,43.62999725341797 105.08999633789062,55.6099967956543 104.72999572753906,66.25999450683594 C104.72999572753906,66.25999450683594 104.72999572753906,66.27000427246094 104.72999572753906,66.27000427246094 C104.48999786376953,70.67001342773438 103.39000701904297,77.8699951171875 100.89000701904297,85.2199935913086 C98.39000701904297,92.55998992919922 94.44999694824219,100.1600112915039 88.43999481201172,105.29000091552734 C88.3899917602539,105.33000946044922 88.33000183105469,105.37998962402344 88.27000427246094,105.40999603271484 C86.80000305175781,106.22999572753906 79.8699951171875,109.94000244140625 72.97999572753906,113.55999755859375 C69.5300064086914,115.3699951171875 66.09999084472656,117.15999603271484 63.34999465942383,118.55000305175781 C60.649993896484375,119.91999816894531 58.529991149902344,120.95999908447266 57.779998779296875,121.2199935913086 C55.19999694824219,122.11998748779297 52.010005950927734,122.62000274658203 49.34000778198242,122.77000427246094 C49.33000564575195,122.77000427246094 49.329994201660156,122.77000427246094 49.31999206542969,122.77000427246094 C49.31998825073242,122.77000427246094 49.30000686645508,122.77000427246094 49.30000305175781,122.77000427246094 C38.5200080871582,122.91000366210938 29.869991302490234,120.7300033569336 22.9899959564209,116.7699966430664 C16.109996795654297,112.79999542236328 11.079996109008789,107.0899887084961 7.5100016593933105,100.25999450683594 C0.3999996781349182,86.64999389648438 -0.9000017046928406,68.57999420166016 0.500000536441803,50.88999557495117 C0.5000014901161194,50.880001068115234 0.5000025629997253,50.87000274658203 0.5000038146972656,50.86000442504883 C2.290008783340454,33.760009765625 6.530007362365723,25.440000534057617 13.750004768371582,19.58000373840332 C17.31000518798828,16.690004348754883 21.550010681152344,14.439997673034668 26.440006256103516,12.009997367858887 C27.329999923706055,11.56999683380127 28.23999786376953,11.120001792907715 29.169998168945312,10.660004615783691 C33.3900032043457,8.580007553100586 38.08000183105469,6.279996871948242 43.29999542236328,3.279994487762451 C43.31999206542969,3.269995927810669 43.32999801635742,3.259997844696045 43.34999465942383,3.250000476837158 C43.34999465942383,3.250000476837158 43.34999465942383,3.250000476837158 43.34999465942383,3.250000476837158z"></path></g></g><g clip-path="url(#__lottie_element_12)" transform="matrix(1,0,0,1,203.05999755859375,74.0172119140625)" opacity="1" style="display: block;"><g transform="matrix(1,0,0,1,1,1)" opacity="1" style="display: block;"><path fill="rgb(15,13,16)" fill-opacity="1" d=" M94.81999206542969,95.83999633789062 C94.81999206542969,95.83999633789062 106.24000549316406,89.79000854492188 106.24000549316406,89.79000854492188 C106.24000549316406,89.79000854492188 106.24000549316406,68.1300048828125 106.24000549316406,68.1300048828125 C106.24000549316406,68.1300048828125 94.81999206542969,66.3499984741211 94.81999206542969,66.3499984741211 C94.81999206542969,66.3499984741211 94.81999206542969,4.080002784729004 94.81999206542969,4.080002784729004 C94.81999206542969,4.080002784729004 68.56000518798828,0 68.56000518798828,0 C68.56000518798828,0 42.719993591308594,13.659995079040527 42.719993591308594,13.659995079040527 C42.719993591308594,13.659995079040527 0,70.6300048828125 0,70.6300048828125 C0,70.6300048828125 0,90.94999694824219 0,90.94999694824219 C0,90.94999694824219 45.309993743896484,98 45.309993743896484,98 C45.309993743896484,98 45.309993743896484,117.87000274658203 45.309993743896484,117.87000274658203 C45.309993743896484,117.87000274658203 68.9800033569336,121.55000305175781 68.9800033569336,121.55000305175781 C68.9800033569336,121.55000305175781 94.83000183105469,107.89999389648438 94.83000183105469,107.89999389648438 C94.83000183105469,107.89999389648438 94.83000183105469,95.83999633789062 94.83000183105469,95.83999633789062 C94.83000183105469,95.83999633789062 94.81999206542969,95.83999633789062 94.81999206542969,95.83999633789062z"></path></g><g transform="matrix(1,0,0,1,25.869998931884766,62.45000457763672)" opacity="1" style="display: block;"><path stroke-linecap="round" stroke-linejoin="round" fill-opacity="0" stroke="rgb(49,47,54)" stroke-opacity="1" stroke-width="1" d=" M22.180004119873047,0 C22.180004119873047,0 0,11.709999084472656 0,11.709999084472656 C0,11.709999084472656 22.180004119873047,0 22.180004119873047,0z"></path></g><g transform="matrix(1,0,0,1,25.869998931884766,74.14999389648438)" opacity="1" style="display: block;"><path stroke-linecap="round" stroke-linejoin="round" fill-opacity="0" stroke="rgb(49,47,54)" stroke-opacity="1" stroke-width="1" d=" M22.180004119873047,3.4500014781951904 C22.180004119873047,3.4500014781951904 0,0 0,0 C0,0 22.180004119873047,3.4500014781951904 22.180004119873047,3.4500014781951904z"></path></g><g transform="matrix(1,0,0,1,69.95999908447266,102.68000030517578)" opacity="1" style="display: block;"><path stroke-linecap="round" stroke-linejoin="round" fill-opacity="0" stroke="rgb(49,47,54)" stroke-opacity="1" stroke-width="1" d=" M0,0 C0,0 0,19.870004653930664 0,19.870004653930664 C0,19.870004653930664 0,0 0,0z"></path></g><g transform="matrix(1,0,0,1,81.38999938964844,82.79999542236328)" opacity="1" style="display: block;"><path stroke-linecap="round" stroke-linejoin="round" fill-opacity="0" stroke="rgb(49,47,54)" stroke-opacity="1" stroke-width="1" d=" M0,0 C0,0 0,21.65999984741211 0,21.65999984741211 C0,21.65999984741211 0,0 0,0z"></path></g><g transform="matrix(1,0,0,1,81.4000015258789,69.1500015258789)" opacity="1" style="display: block;"><path stroke-linecap="round" stroke-linejoin="round" fill-opacity="0" stroke="rgb(49,47,54)" stroke-opacity="1" stroke-width="1" d=" M0,13.659995079040527 C0,13.659995079040527 25.849998474121094,0 25.849998474121094,0 C25.849998474121094,0 0,13.659995079040527 0,13.659995079040527z"></path></g><g transform="matrix(1,0,0,1,69.97000122070312,81.02000427246094)" opacity="1" style="display: block;"><path stroke-linecap="round" stroke-linejoin="round" fill-opacity="0" stroke="rgb(49,47,54)" stroke-opacity="1" stroke-width="1" d=" M0,0 C0,0 11.429996490478516,1.7899943590164185 11.429996490478516,1.7899943590164185 C11.429996490478516,1.7899943590164185 0,0 0,0z"></path></g><g transform="matrix(1,0,0,1,69.97000122070312,67.36000061035156)" opacity="1" style="display: block;"><path stroke-linecap="round" stroke-linejoin="round" fill-opacity="0" stroke="rgb(49,47,54)" stroke-opacity="1" stroke-width="1" d=" M0,13.659995079040527 C0,13.659995079040527 25.849998474121094,0 25.849998474121094,0 C25.849998474121094,0 0,13.659995079040527 0,13.659995079040527z"></path></g><g transform="matrix(1,0,0,1,69.95999908447266,18.719999313354492)" opacity="1" style="display: block;"><path stroke-linecap="round" stroke-linejoin="round" fill-opacity="0" stroke="rgb(49,47,54)" stroke-opacity="1" stroke-width="1" d=" M0,0 C0,0 0,62.29000473022461 0,62.29000473022461 C0,62.29000473022461 0,0 0,0z"></path></g><g transform="matrix(1,0,0,1,25.869998931884766,44.2400016784668)" opacity="1" style="display: block;"><path stroke-linecap="round" stroke-linejoin="round" fill-opacity="0" stroke="rgb(49,47,54)" stroke-opacity="1" stroke-width="1" d=" M22.180004119873047,0 C22.180004119873047,0 0,29.919998168945312 0,29.919998168945312 C0,29.919998168945312 22.180004119873047,0 22.180004119873047,0z"></path></g><g transform="matrix(1,0,0,1,69.97000122070312,5.069999694824219)" opacity="1" style="display: block;"><path stroke-linecap="round" stroke-linejoin="round" fill-opacity="0" stroke="rgb(49,47,54)" stroke-opacity="1" stroke-width="1" d=" M0,13.659995079040527 C0,13.659995079040527 25.849998474121094,0 25.849998474121094,0 C25.849998474121094,0 0,13.659995079040527 0,13.659995079040527z"></path></g><g transform="matrix(1,0,0,1,43.70000076293945,14.640000343322754)" opacity="1" style="display: block;"><path stroke-linecap="round" stroke-linejoin="round" fill-opacity="0" stroke="rgb(49,47,54)" stroke-opacity="1" stroke-width="1" d=" M0,0 C0,0 26.269994735717773,4.080002784729004 26.269994735717773,4.080002784729004 C26.269994735717773,4.080002784729004 0,0 0,0z"></path></g><g transform="matrix(1,0,0,1,69.47000122070312,96.35000610351562)" opacity="1" style="display: block;"><path fill-rule="evenodd" fill="rgb(49,47,54)" fill-opacity="1" d=" M26.790002822875977,0.26999539136886597 C26.920000076293945,0.5100011825561523 26.820009231567383,0.8100046515464783 26.58000373840332,0.9400031566619873 C26.58000373840332,0.9400031566619873 12.160000801086426,8.5599946975708 12.160000801086426,8.5599946975708 C12.06000804901123,8.609994888305664 11.95999526977539,8.629992485046387 11.850000381469727,8.609996795654297 C11.850000381469727,8.609996795654297 0.4200039803981781,6.820002555847168 0.4200039803981781,6.820002555847168 C0.15000005066394806,6.779999256134033 -0.030009105801582336,6.520004749298096 0.009994551539421082,6.250000953674316 C0.0499982088804245,5.979997158050537 0.30999231338500977,5.79000186920166 0.5799962282180786,5.830005645751953 C0.5799962282180786,5.830005645751953 11.840001106262207,7.590005874633789 11.840001106262207,7.590005874633789 C11.840001106262207,7.590005874633789 26.1199951171875,0.05999714136123657 26.1199951171875,0.05999714136123657 C26.360000610351562,-0.07000136375427246 26.660003662109375,0.029989561066031456 26.790002822875977,0.26999539136886597 C26.790002822875977,0.26999539136886597 26.790002822875977,0.26999539136886597 26.790002822875977,0.26999539136886597z"></path></g><g transform="matrix(1,0,0,1,48.060001373291016,44.23999786376953)" opacity="1" style="display: block;"><path stroke-linecap="round" stroke-linejoin="round" fill-opacity="0" stroke="rgb(49,47,54)" stroke-opacity="1" stroke-width="1" d=" M0,33.369998931884766 C0,33.369998931884766 0,0 0,0 C0,0 0,33.369998931884766 0,33.369998931884766z"></path></g><g transform="matrix(1,0,0,1,0,0)" opacity="1" style="display: block;"><path fill-rule="evenodd" fill="rgb(100,96,107)" fill-opacity="1" d=" M94.83000183105469,97 C94.76000213623047,96.58999633789062 94.95999908447266,96.15999603271484 95.3499984741211,95.95000457763672 C95.3499984741211,95.95000457763672 106.24000549316406,90.19000244140625 106.24000549316406,90.19000244140625 C106.24000549316406,90.19000244140625 106.24000549316406,69.98999786376953 106.24000549316406,69.98999786376953 C106.24000549316406,69.98999786376953 95.66000366210938,68.33999633789062 95.66000366210938,68.33999633789062 C95.17000579833984,68.26000213623047 94.81999206542969,67.84000396728516 94.81999206542969,67.3499984741211 C94.81999206542969,67.3499984741211 94.81999206542969,5.939998149871826 94.81999206542969,5.939998149871826 C94.81999206542969,5.939998149871826 69.73999786376953,2.039998769760132 69.73999786376953,2.039998769760132 C69.73999786376953,2.039998769760132 44.380001068115234,15.439993858337402 44.380001068115234,15.439993858337402 C44.380001068115234,15.439993858337402 2,71.9699935913086 2,71.9699935913086 C2,71.9699935913086 2,91.09000396728516 2,91.09000396728516 C2,91.09000396728516 46.459999084472656,98.01000213623047 46.459999084472656,98.01000213623047 C46.94999694824219,98.08999633789062 47.309993743896484,98.50999450683594 47.309993743896484,99 C47.309993743896484,99 47.309993743896484,118.0199966430664 47.309993743896484,118.0199966430664 C47.309993743896484,118.0199966430664 69.80999755859375,121.51000213623047 69.80999755859375,121.51000213623047 C69.80999755859375,121.51000213623047 94.83000183105469,108.29000091552734 94.83000183105469,108.29000091552734 C94.83000183105469,108.29000091552734 94.83000183105469,97 94.83000183105469,97 C94.83000183105469,97 94.83000183105469,97 94.83000183105469,97z M69.0999984741211,0.11999419331550598 C69.28999328613281,0.019993416965007782 69.50999450683594,-0.020001664757728577 69.7199935913086,0.010002600029110909 C69.7199935913086,0.010002600029110909 95.97000122070312,4.090005397796631 95.97000122070312,4.090005397796631 C96.45999908447266,4.169999599456787 96.81999206542969,4.589998722076416 96.81999206542969,5.080002784729004 C96.81999206542969,5.080002784729004 96.81999206542969,66.49000549316406 96.81999206542969,66.49000549316406 C96.81999206542969,66.49000549316406 107.39999389648438,68.14999389648438 107.39999389648438,68.14999389648438 C107.8899917602539,68.22998809814453 108.24000549316406,68.63999938964844 108.24000549316406,69.1300048828125 C108.24000549316406,69.1300048828125 108.24000549316406,90.79000854492188 108.24000549316406,90.79000854492188 C108.24000549316406,91.16000366210938 108.04000091552734,91.50999450683594 107.70999908447266,91.68000030517578 C107.70999908447266,91.68000030517578 96.83000183105469,97.43000030517578 96.83000183105469,97.43000030517578 C96.83000183105469,97.43000030517578 96.83000183105469,108.89999389648438 96.83000183105469,108.89999389648438 C96.83000183105469,109.2699966430664 96.62998962402344,109.60999298095703 96.29999542236328,109.77999877929688 C96.29999542236328,109.77999877929688 70.44999694824219,123.43999481201172 70.44999694824219,123.43999481201172 C70.25999450683594,123.53999328613281 70.04000091552734,123.57000732421875 69.82999420166016,123.54000091552734 C69.82999420166016,123.54000091552734 46.15000534057617,119.86000061035156 46.15000534057617,119.86000061035156 C45.66000747680664,119.7800064086914 45.309993743896484,119.3600082397461 45.309993743896484,118.87000274658203 C45.309993743896484,118.87000274658203 45.309993743896484,99.85999298095703 45.309993743896484,99.85999298095703 C45.309993743896484,99.85999298095703 0.8499947786331177,92.93999481201172 0.8499947786331177,92.93999481201172 C0.359998881816864,92.86000061035156 0,92.44000244140625 0,91.94999694824219 C0,91.94999694824219 0,71.6300048828125 0,71.6300048828125 C0,71.4100112915039 0.07000018656253815,71.20000457763672 0.1999998390674591,71.0300064086914 C0.1999998390674591,71.0300064086914 42.91999435424805,14.059995651245117 42.91999435424805,14.059995651245117 C43.00999069213867,13.939997673034668 43.1199951171875,13.840002059936523 43.249996185302734,13.770003318786621 C43.249996185302734,13.770003318786621 69.0999984741211,0.11999419331550598 69.0999984741211,0.11999419331550598 C69.0999984741211,0.11999419331550598 69.0999984741211,0.11999419331550598 69.0999984741211,0.11999419331550598z"></path></g></g></g></svg>